<?xml version="1.0" encoding="UTF-8" standalone="no"?>
<!-- Created with Inkscape (http://www.inkscape.org/) -->

<svg
   xmlns:dc="http://purl.org/dc/elements/1.1/"
   xmlns:cc="http://creativecommons.org/ns#"
   xmlns:rdf="http://www.w3.org/1999/02/22-rdf-syntax-ns#"
   xmlns:svg="http://www.w3.org/2000/svg"
   xmlns="http://www.w3.org/2000/svg"
   xmlns:sodipodi="http://sodipodi.sourceforge.net/DTD/sodipodi-0.dtd"
   xmlns:inkscape="http://www.inkscape.org/namespaces/inkscape"
   width="110.83333mm"
   height="105.54166mm"
   viewBox="0 0 110.83333 105.54166"
   version="1.1"
   id="svg8"
   inkscape:version="0.92.2 (5c3e80d, 2017-08-06)"
   sodipodi:docname="CAS_logo_idea_2.svg"
   inkscape:export-filename="D:\MyStuff\Development\2019\PiHandle\CAD\CAS_logo_idea_2.png"
   inkscape:export-xdpi="385.10001"
   inkscape:export-ydpi="385.10001">
  <defs
     id="defs2" />
  <sodipodi:namedview
     id="base"
     pagecolor="#ffffff"
     bordercolor="#666666"
     borderopacity="1.0"
     inkscape:pageopacity="0.0"
     inkscape:pageshadow="2"
     inkscape:zoom="0.7"
     inkscape:cx="8.6535351"
     inkscape:cy="277.84316"
     inkscape:document-units="mm"
     inkscape:current-layer="layer1"
     showgrid="false"
     inkscape:window-width="1920"
     inkscape:window-height="1017"
     inkscape:window-x="-8"
     inkscape:window-y="-8"
     inkscape:window-maximized="1" />
  <metadata
     id="metadata5">
    <rdf:RDF>
      <cc:Work
         rdf:about="">
        <dc:format>image/svg+xml</dc:format>
        <dc:type
           rdf:resource="http://purl.org/dc/dcmitype/StillImage" />
        <dc:title />
      </cc:Work>
    </rdf:RDF>
  </metadata>
  <g
     inkscape:label="Layer 1"
     inkscape:groupmode="layer"
     id="layer1"
     style="display:inline"
     transform="translate(-49.583336,-88.124992)">
    <path
       style="color:#000000;font-style:normal;font-variant:normal;font-weight:normal;font-stretch:normal;font-size:medium;line-height:normal;font-family:sans-serif;font-variant-ligatures:normal;font-variant-position:normal;font-variant-caps:normal;font-variant-numeric:normal;font-variant-alternates:normal;font-feature-settings:normal;text-indent:0;text-align:start;text-decoration:none;text-decoration-line:none;text-decoration-style:solid;text-decoration-color:#000000;letter-spacing:normal;word-spacing:normal;text-transform:none;writing-mode:lr-tb;direction:ltr;text-orientation:mixed;dominant-baseline:auto;baseline-shift:baseline;text-anchor:start;white-space:normal;shape-padding:0;clip-rule:nonzero;display:inline;overflow:visible;visibility:visible;opacity:1;isolation:auto;mix-blend-mode:normal;color-interpolation:sRGB;color-interpolation-filters:linearRGB;solid-color:#000000;solid-opacity:1;vector-effect:none;fill:#000000;fill-opacity:1;fill-rule:nonzero;stroke:none;stroke-width:5;stroke-linecap:round;stroke-linejoin:round;stroke-miterlimit:0;stroke-dasharray:none;stroke-dashoffset:0;stroke-opacity:1;color-rendering:auto;image-rendering:auto;shape-rendering:auto;text-rendering:auto;enable-background:accumulate"
       d="m 93.285196,115.28108 c -1.761276,0.0998 -3.351268,0.35471 -4.991185,0.66297 0.169958,5.03491 2.730971,9.80079 6.407362,12.76091 0.466637,-1.48783 0.952846,-2.88619 2.280996,-4.77129 -2.153811,-2.117 -3.698483,-5.06693 -3.698483,-8.34574 0,-0.0865 -5.29e-4,-0.22081 0.0013,-0.30685 z m 23.488284,0.31275 c 0,6.48482 -5.31505,11.68331 -11.79988,11.68331 -0.67779,0 -1.40555,-0.0892 -2.05089,-0.19851 -1.05602,1.5443 -1.71346,3.19442 -2.03775,4.6556 1.25948,0.3059 2.73784,0.54312 4.08864,0.54312 9.0084,0 16.44854,-7.59049 16.73239,-16.53249 -1.66799,-0.34556 -3.39828,-0.51315 -4.91366,-0.60863 z"
       id="path815-7"
       inkscape:connector-curvature="0"
       sodipodi:nodetypes="ccccscccccscccc" />
    <path
       style="color:#000000;font-style:normal;font-variant:normal;font-weight:normal;font-stretch:normal;font-size:medium;line-height:normal;font-family:sans-serif;font-variant-ligatures:normal;font-variant-position:normal;font-variant-caps:normal;font-variant-numeric:normal;font-variant-alternates:normal;font-feature-settings:normal;text-indent:0;text-align:start;text-decoration:none;text-decoration-line:none;text-decoration-style:solid;text-decoration-color:#000000;letter-spacing:normal;word-spacing:normal;text-transform:none;writing-mode:lr-tb;direction:ltr;text-orientation:mixed;dominant-baseline:auto;baseline-shift:baseline;text-anchor:start;white-space:normal;shape-padding:0;clip-rule:nonzero;display:inline;overflow:visible;visibility:visible;opacity:1;isolation:auto;mix-blend-mode:normal;color-interpolation:sRGB;color-interpolation-filters:linearRGB;solid-color:#000000;solid-opacity:1;vector-effect:none;fill:#2c89a0;fill-opacity:1;fill-rule:nonzero;stroke:none;stroke-width:5;stroke-linecap:round;stroke-linejoin:round;stroke-miterlimit:0;stroke-dasharray:none;stroke-dashoffset:0;stroke-opacity:1;color-rendering:auto;image-rendering:auto;shape-rendering:auto;text-rendering:auto;enable-background:accumulate"
       d="m 104.99794,108.55728 c -12.179096,0 -23.658229,1.71093 -33.767451,4.76663 v 5.24878 c 9.933427,-3.17444 21.467665,-5.0152 33.767451,-5.0152 12.30163,0 23.83713,1.84143 33.77157,5.01675 v -5.2493 c -10.11055,-3.05628 -21.59123,-4.76766 -33.77157,-4.76766 z"
       id="path1528"
       inkscape:connector-curvature="0"
       sodipodi:nodetypes="sccsccs" />
    <path
       style="color:#000000;font-style:normal;font-variant:normal;font-weight:normal;font-stretch:normal;font-size:medium;line-height:normal;font-family:sans-serif;font-variant-ligatures:normal;font-variant-position:normal;font-variant-caps:normal;font-variant-numeric:normal;font-variant-alternates:normal;font-feature-settings:normal;text-indent:0;text-align:start;text-decoration:none;text-decoration-line:none;text-decoration-style:solid;text-decoration-color:#000000;letter-spacing:normal;word-spacing:normal;text-transform:none;writing-mode:lr-tb;direction:ltr;text-orientation:mixed;dominant-baseline:auto;baseline-shift:baseline;text-anchor:start;white-space:normal;shape-padding:0;clip-rule:nonzero;display:inline;overflow:visible;visibility:visible;opacity:1;isolation:auto;mix-blend-mode:normal;color-interpolation:sRGB;color-interpolation-filters:linearRGB;solid-color:#000000;solid-opacity:1;vector-effect:none;fill:#000000;fill-opacity:1;fill-rule:nonzero;stroke:none;stroke-width:5;stroke-linecap:round;stroke-linejoin:round;stroke-miterlimit:0;stroke-dasharray:none;stroke-dashoffset:0;stroke-opacity:1;color-rendering:auto;image-rendering:auto;shape-rendering:auto;text-rendering:auto;enable-background:accumulate"
       d="m 105.00103,141.39617 c -1.38706,0 -2.71121,0.15002 -4.00145,0.47196 0.0219,1.06282 1.07231,3.55166 1.9434,4.65353 0.63082,-0.10416 1.39641,-0.12528 2.05805,-0.12528 6.48483,0 11.68766,5.20284 11.68766,11.68766 0,6.48483 -5.20283,11.68714 -11.68766,11.68714 -6.484819,0 -11.689724,-5.20231 -11.689724,-11.68714 0,-3.22562 1.395033,-6.33451 3.487495,-8.44319 -0.584009,-1.03475 -1.467252,-2.39191 -2.10121,-4.61147 -3.834603,3.0628 -6.385981,7.78842 -6.385981,13.05466 0,9.18703 7.502398,16.68736 16.68942,16.68736 9.18703,0 16.68736,-7.50033 16.68736,-16.68736 0,-9.18702 -7.50033,-16.68787 -16.68736,-16.68787 z"
       id="path815-6"
       inkscape:connector-curvature="0"
       sodipodi:nodetypes="sccssssccssss" />
    <path
       style="color:#000000;font-style:normal;font-variant:normal;font-weight:normal;font-stretch:normal;font-size:medium;line-height:normal;font-family:sans-serif;font-variant-ligatures:normal;font-variant-position:normal;font-variant-caps:normal;font-variant-numeric:normal;font-variant-alternates:normal;font-feature-settings:normal;text-indent:0;text-align:start;text-decoration:none;text-decoration-line:none;text-decoration-style:solid;text-decoration-color:#000000;letter-spacing:normal;word-spacing:normal;text-transform:none;writing-mode:lr-tb;direction:ltr;text-orientation:mixed;dominant-baseline:auto;baseline-shift:baseline;text-anchor:start;white-space:normal;shape-padding:0;clip-rule:nonzero;display:inline;overflow:visible;visibility:visible;opacity:1;isolation:auto;mix-blend-mode:normal;color-interpolation:sRGB;color-interpolation-filters:linearRGB;solid-color:#000000;solid-opacity:1;vector-effect:none;fill:#72a000;fill-opacity:1;fill-rule:nonzero;stroke:none;stroke-width:5;stroke-linecap:round;stroke-linejoin:round;stroke-miterlimit:0;stroke-dasharray:none;stroke-dashoffset:0;stroke-opacity:1;color-rendering:auto;image-rendering:auto;shape-rendering:auto;text-rendering:auto;enable-background:accumulate"
       d="m 105.00103,119.84141 c -3.44297,0 -6.173327,2.43413 -7.898742,5.52938 -1.725414,3.09526 -2.681488,7.08597 -2.681488,11.46494 0,4.37897 0.956074,8.37175 2.681488,11.467 1.725415,3.09526 4.455772,5.52731 7.898742,5.52731 2.80641,0 5.13722,-1.6164 6.83783,-3.8902 -1.20989,-0.9563 -2.83168,-1.99218 -4.5112,-2.35127 -0.80273,0.84085 -1.66049,1.24126 -2.32663,1.24126 -1.0192,0 -2.33072,-0.8121 -3.5295,-2.96261 -1.19878,-2.15052 -2.050518,-5.40568 -2.050518,-9.03149 0,-3.62582 0.851738,-6.88047 2.050518,-9.03098 1.19878,-2.15052 2.5103,-2.96312 3.5295,-2.96312 0.6761,0 1.58907,0.5112 2.40405,1.37972 1.61407,-0.46786 3.27989,-1.30029 4.63563,-2.34247 -1.7064,-2.32352 -4.19483,-4.03747 -7.03968,-4.03747 z m 9.83179,10.2534 c -1.66205,0.99017 -2.83938,1.70374 -4.67775,2.29403 0.25838,1.32764 0.42392,2.93782 0.42392,4.44689 0,1.48467 -0.19429,3.08905 -0.44493,4.39899 1.56175,0.40601 3.32392,1.21262 4.64158,2.18593 0.49197,-1.99823 0.80356,-4.30514 0.80356,-6.58492 0,-2.24397 -0.26938,-4.76912 -0.74638,-6.74092 z"
       id="path815-1"
       inkscape:connector-curvature="0"
       sodipodi:nodetypes="scscsccscscsccsccsccsc" />
  </g>
</svg>
