<?xml version="1.0" encoding="UTF-8" standalone="no"?>
<!-- Created with Inkscape (http://www.inkscape.org/) -->

<svg
   xmlns:dc="http://purl.org/dc/elements/1.1/"
   xmlns:cc="http://creativecommons.org/ns#"
   xmlns:rdf="http://www.w3.org/1999/02/22-rdf-syntax-ns#"
   xmlns:svg="http://www.w3.org/2000/svg"
   xmlns="http://www.w3.org/2000/svg"
   xmlns:xlink="http://www.w3.org/1999/xlink"
   xmlns:sodipodi="http://sodipodi.sourceforge.net/DTD/sodipodi-0.dtd"
   xmlns:inkscape="http://www.inkscape.org/namespaces/inkscape"
   width="210mm"
   height="297mm"
   viewBox="0 0 210 297"
   version="1.1"
   id="svg8"
   inkscape:version="0.92.2 (5c3e80d, 2017-08-06)"
   sodipodi:docname="DafLogovDoneAug12.svg"
   inkscape:export-filename="D:\MyStuff\Art\Ink\DafLogoAug12.png"
   inkscape:export-xdpi="210.45255"
   inkscape:export-ydpi="210.45255">
  <defs
     id="defs2">
    <marker
       inkscape:stockid="RazorWire"
       id="RazorWire"
       refX="0"
       refY="0"
       orient="auto"
       style="overflow:visible"
       inkscape:isstock="true">
      <path
         id="path1275"
         transform="scale(0.8,0.8)"
         style="fill:#000001;fill-opacity:1;fill-rule:evenodd;stroke:#000001;stroke-width:0.1pt;stroke-opacity:1"
         d="M 0.022727273,-0.74009011 L 0.022727273,0.69740989 L -7.7585227,3.0099099 L 10.678977,3.0099099 L 3.4914773,0.69740989 L 3.4914773,-0.74009011 L 10.741477,-2.8963401 L -7.7272727,-2.8963401 L 0.022727273,-0.74009011 z " />
    </marker>
    <marker
       inkscape:stockid="Club"
       orient="auto"
       refY="0.0"
       refX="0.0"
       id="Club"
       style="overflow:visible"
       inkscape:isstock="true">
      <path
         id="path1272"
         d="M -1.5971367,-7.0977635 C -3.4863874,-7.0977635 -5.0235187,-5.5606321 -5.0235187,-3.6713813 C -5.0235187,-3.0147015 -4.7851656,-2.4444556 -4.4641095,-1.9232271 C -4.5028609,-1.8911157 -4.5437814,-1.8647646 -4.5806531,-1.8299921 C -5.2030765,-2.6849849 -6.1700514,-3.2751330 -7.3077730,-3.2751330 C -9.1970245,-3.2751331 -10.734155,-1.7380016 -10.734155,0.15124914 C -10.734155,2.0404999 -9.1970245,3.5776313 -7.3077730,3.5776313 C -6.3143268,3.5776313 -5.4391540,3.1355702 -4.8137404,2.4588126 C -4.9384274,2.8137041 -5.0235187,3.1803000 -5.0235187,3.5776313 C -5.0235187,5.4668819 -3.4863874,7.0040135 -1.5971367,7.0040135 C 0.29211394,7.0040135 1.8292454,5.4668819 1.8292454,3.5776313 C 1.8292454,2.7842354 1.5136868,2.0838028 1.0600576,1.5031550 C 2.4152718,1.7663868 3.7718375,2.2973711 4.7661444,3.8340272 C 4.0279463,3.0958289 3.5540908,1.7534117 3.5540908,-0.058529361 L 2.9247554,-0.10514681 L 3.5074733,-0.12845553 C 3.5074733,-1.9403966 3.9580199,-3.2828138 4.6962183,-4.0210121 C 3.7371277,-2.5387813 2.4390549,-1.9946496 1.1299838,-1.7134486 C 1.5341802,-2.2753578 1.8292454,-2.9268556 1.8292454,-3.6713813 C 1.8292454,-5.5606319 0.29211394,-7.0977635 -1.5971367,-7.0977635 z "
         style="fill-rule:evenodd;stroke:#000001;stroke-width:0.74587913pt;stroke-opacity:1;fill:#000001;fill-opacity:1"
         transform="scale(0.6)" />
    </marker>
    <marker
       inkscape:stockid="Torso"
       orient="auto"
       refY="0.0"
       refX="0.0"
       id="Torso"
       style="overflow:visible"
       inkscape:isstock="true">
      <g
         id="g1269"
         transform="scale(0.7)"
         style="stroke:#000001;stroke-opacity:1;fill:#000001;fill-opacity:1">
        <path
           id="path1255"
           d="M -4.7792281,-3.2395420 C -2.4288541,-2.8736027 0.52103922,-1.3019943 0.25792722,0.38794346 C -0.0051877922,2.0778819 -2.2126741,2.6176539 -4.5630471,2.2517169 C -6.9134221,1.8857769 -8.5210350,0.75201414 -8.2579220,-0.93792336 C -7.9948090,-2.6278615 -7.1296041,-3.6054813 -4.7792281,-3.2395420 z "
           style="fill:#000001;fill-opacity:1;fill-rule:evenodd;stroke:#000001;stroke-width:1.25;stroke-opacity:1" />
        <path
           id="path1257"
           d="M 4.4598789,0.088665736 C -2.5564571,-4.3783320 5.2248769,-3.9061806 -0.84829578,-8.7197331"
           style="fill:#000001;fill-opacity:1;fill-rule:evenodd;stroke:#000001;stroke-width:1pt;stroke-opacity:1" />
        <path
           id="path1259"
           d="M 4.9298719,0.057520736 C -1.3872731,1.7494689 1.8027579,5.4782079 -4.9448731,7.5462725"
           style="fill:#000001;fill-opacity:1;fill-rule:evenodd;stroke:#000001;stroke-width:1pt;stroke-opacity:1" />
        <rect
           id="rect1261"
           transform="matrix(0.527536,-0.849533,0.887668,0.460484,0,0)"
           y="-1.7408575"
           x="-10.391706"
           height="2.7608147"
           width="2.6366582"
           style="fill-rule:evenodd;stroke-width:1pt;stroke:#000001;stroke-opacity:1;fill:#000001;fill-opacity:1" />
        <rect
           id="rect1263"
           transform="matrix(0.671205,-0.741272,0.790802,0.612072,0,0)"
           y="-7.9629307"
           x="4.9587269"
           height="2.8614161"
           width="2.7327356"
           style="fill-rule:evenodd;stroke-width:1pt;stroke:#000001;stroke-opacity:1;fill:#000001;fill-opacity:1" />
        <path
           id="path1265"
           transform="matrix(0,-1.109517,1.109517,0,25.96648,19.71619)"
           d="M 16.779951 -28.685045 A 0.60731727 0.60731727 0 1 0 15.565317,-28.685045 A 0.60731727 0.60731727 0 1 0 16.779951 -28.685045 z"
           style="fill:#000001;fill-opacity:1;fill-rule:evenodd;stroke:#000001;stroke-width:1pt;stroke-opacity:1" />
        <path
           id="path1267"
           transform="matrix(0,-1.109517,1.109517,0,26.82450,16.99126)"
           d="M 16.779951 -28.685045 A 0.60731727 0.60731727 0 1 0 15.565317,-28.685045 A 0.60731727 0.60731727 0 1 0 16.779951 -28.685045 z"
           style="fill:#000001;fill-opacity:1;fill-rule:evenodd;stroke:#000001;stroke-width:1pt;stroke-opacity:1" />
      </g>
    </marker>
    <marker
       inkscape:stockid="Tail"
       orient="auto"
       refY="0.0"
       refX="0.0"
       id="Tail"
       style="overflow:visible"
       inkscape:isstock="true">
      <g
         id="g1091"
         transform="scale(-1.2)"
         style="stroke:#000001;stroke-opacity:1;fill:#000001;fill-opacity:1">
        <path
           id="path1079"
           d="M -3.8048674,-3.9585227 L 0.54352094,0"
           style="fill:#000001;fill-rule:evenodd;stroke:#000001;stroke-width:0.8;stroke-linecap:round;stroke-opacity:1;fill-opacity:1" />
        <path
           id="path1081"
           d="M -1.2866832,-3.9585227 L 3.0617053,0"
           style="fill:#000001;fill-rule:evenodd;stroke:#000001;stroke-width:0.8;stroke-linecap:round;stroke-opacity:1;fill-opacity:1" />
        <path
           id="path1083"
           d="M 1.3053582,-3.9585227 L 5.6537466,0"
           style="fill:#000001;fill-rule:evenodd;stroke:#000001;stroke-width:0.8;stroke-linecap:round;stroke-opacity:1;fill-opacity:1" />
        <path
           id="path1085"
           d="M -3.8048674,4.1775838 L 0.54352094,0.21974226"
           style="fill:#000001;fill-rule:evenodd;stroke:#000001;stroke-width:0.8;stroke-linecap:round;stroke-opacity:1;fill-opacity:1" />
        <path
           id="path1087"
           d="M -1.2866832,4.1775838 L 3.0617053,0.21974226"
           style="fill:#000001;fill-rule:evenodd;stroke:#000001;stroke-width:0.8;stroke-linecap:round;stroke-opacity:1;fill-opacity:1" />
        <path
           id="path1089"
           d="M 1.3053582,4.1775838 L 5.6537466,0.21974226"
           style="fill:#000001;fill-rule:evenodd;stroke:#000001;stroke-width:0.8;stroke-linecap:round;stroke-opacity:1;fill-opacity:1" />
      </g>
    </marker>
    <marker
       inkscape:stockid="Arrow2Lstart"
       orient="auto"
       refY="0.0"
       refX="0.0"
       id="Arrow2Lstart"
       style="overflow:visible"
       inkscape:isstock="true">
      <path
         id="path1061"
         style="fill-rule:evenodd;stroke-width:0.625;stroke-linejoin:round;stroke:#000001;stroke-opacity:1;fill:#000001;fill-opacity:1"
         d="M 8.7185878,4.0337352 L -2.2072895,0.016013256 L 8.7185884,-4.0017078 C 6.9730900,-1.6296469 6.9831476,1.6157441 8.7185878,4.0337352 z "
         transform="scale(1.1) translate(1,0)" />
    </marker>
    <marker
       inkscape:stockid="Arrow1Lstart"
       orient="auto"
       refY="0.0"
       refX="0.0"
       id="Arrow1Lstart"
       style="overflow:visible"
       inkscape:isstock="true">
      <path
         id="path1043"
         d="M 0.0,0.0 L 5.0,-5.0 L -12.5,0.0 L 5.0,5.0 L 0.0,0.0 z "
         style="fill-rule:evenodd;stroke:#000001;stroke-width:1pt;stroke-opacity:1;fill:#000001;fill-opacity:1"
         transform="scale(0.8) translate(12.5,0)" />
    </marker>
    <inkscape:perspective
       sodipodi:type="inkscape:persp3d"
       inkscape:vp_x="0 : 148.5 : 1"
       inkscape:vp_y="0 : 1000 : 0"
       inkscape:vp_z="181.88397 : 126.83107 : 1"
       inkscape:persp3d-origin="105 : 99 : 1"
       id="perspective950" />
    <linearGradient
       inkscape:collect="always"
       id="linearGradient936">
      <stop
         style="stop-color:#000001;stop-opacity:1;"
         offset="0"
         id="stop932" />
      <stop
         style="stop-color:#000001;stop-opacity:0;"
         offset="1"
         id="stop934" />
    </linearGradient>
    <linearGradient
       inkscape:collect="always"
       id="linearGradient839">
      <stop
         style="stop-color:#000001;stop-opacity:1;"
         offset="0"
         id="stop835" />
      <stop
         style="stop-color:#000001;stop-opacity:0;"
         offset="1"
         id="stop837" />
    </linearGradient>
    <linearGradient
       inkscape:collect="always"
       xlink:href="#linearGradient839"
       id="linearGradient841"
       x1="95.967072"
       y1="148.9265"
       x2="114.4595"
       y2="253.24792"
       gradientUnits="userSpaceOnUse"
       gradientTransform="translate(-41.168446,-10.536954)" />
    <linearGradient
       inkscape:collect="always"
       xlink:href="#linearGradient936"
       id="linearGradient938"
       x1="55.438522"
       y1="104.66785"
       x2="63.477898"
       y2="248.72612"
       gradientUnits="userSpaceOnUse" />
  </defs>
  <sodipodi:namedview
     id="base"
     pagecolor="#ffffff"
     bordercolor="#666666"
     borderopacity="1.0"
     inkscape:pageopacity="0.0"
     inkscape:pageshadow="2"
     inkscape:zoom="0.5"
     inkscape:cx="354.24111"
     inkscape:cy="427.09588"
     inkscape:document-units="mm"
     inkscape:current-layer="layer1"
     showgrid="false"
     inkscape:window-width="958"
     inkscape:window-height="1008"
     inkscape:window-x="953"
     inkscape:window-y="0"
     inkscape:window-maximized="1"
     inkscape:lockguides="true" />
  <metadata
     id="metadata5">
    <rdf:RDF>
      <cc:Work
         rdf:about="">
        <dc:format>image/svg+xml</dc:format>
        <dc:type
           rdf:resource="http://purl.org/dc/dcmitype/StillImage" />
        <dc:title />
      </cc:Work>
    </rdf:RDF>
  </metadata>
  <g
     inkscape:label="Layer 1"
     inkscape:groupmode="layer"
     id="layer1">
    <path
       style="fill:none;fill-opacity:1;stroke:url(#linearGradient841);stroke-width:1.96499991;stroke-miterlimit:4;stroke-dasharray:none;stroke-opacity:1"
       id="path815"
       sodipodi:type="arc"
       sodipodi:cx="57.38884"
       sodipodi:cy="154.64383"
       sodipodi:rx="39.026043"
       sodipodi:ry="39.026043"
       sodipodi:start="0.59413781"
       sodipodi:end="6.1272001"
       d="M 89.727047,176.49039 A 39.026043,39.026043 0 0 1 41.954223,190.488 39.026043,39.026043 0 0 1 19.295573,146.16237 39.026043,39.026043 0 0 1 58.619733,115.6372 39.026043,39.026043 0 0 1 95.941066,148.581"
       sodipodi:open="true" />
    <flowRoot
       xml:space="preserve"
       id="flowRoot843"
       style="font-style:normal;font-variant:normal;font-weight:normal;font-stretch:normal;font-size:192px;line-height:1.25;font-family:'Lucida Sans';-inkscape-font-specification:'Lucida Sans';letter-spacing:0px;word-spacing:0px;fill:#000000;fill-opacity:1;stroke:none"
       transform="matrix(0.35894334,0,0,0.35894334,-64.095916,-67.305365)"><flowRegion
         id="flowRegion845"
         style="font-style:normal;font-variant:normal;font-weight:normal;font-stretch:normal;font-size:192px;font-family:'Lucida Sans';-inkscape-font-specification:'Lucida Sans'"><rect
           id="rect847"
           width="387.14288"
           height="447.85718"
           x="405"
           y="551.80542"
           style="font-style:normal;font-variant:normal;font-weight:normal;font-stretch:normal;font-size:192px;font-family:'Lucida Sans';-inkscape-font-specification:'Lucida Sans'" /></flowRegion><flowPara
         id="flowPara849">Daf</flowPara></flowRoot>    <path
       style="fill:none;fill-opacity:1;stroke:#000001;stroke-width:0.56067866;stroke-linejoin:round;stroke-miterlimit:4;stroke-dasharray:none;stroke-dashoffset:0;stroke-opacity:1"
       id="path968-1"
       sodipodi:type="arc"
       sodipodi:cx="68.586731"
       sodipodi:cy="125.39227"
       sodipodi:rx="7.0805216"
       sodipodi:ry="7.0805216"
       sodipodi:start="1.1950565"
       sodipodi:end="0.83047182"
       d="m 71.185005,131.97883 a 7.0805216,7.0805216 0 0 1 -8.920998,-3.39956 7.0805216,7.0805216 0 0 1 2.573461,-9.19339 7.0805216,7.0805216 0 0 1 9.38947,1.72599 7.0805216,7.0805216 0 0 1 -0.8642,9.5076"
       sodipodi:open="true" />
    <path
       style="fill:none;fill-opacity:1;stroke:#000001;stroke-width:0.55564034;stroke-linejoin:round;stroke-miterlimit:4;stroke-dasharray:none;stroke-dashoffset:0;stroke-opacity:1"
       id="path968-1-8"
       sodipodi:type="arc"
       sodipodi:cx="53.167152"
       sodipodi:cy="123.55995"
       sodipodi:rx="7.0168948"
       sodipodi:ry="7.0168948"
       sodipodi:start="1.1875235"
       sodipodi:end="0.79109588"
       sodipodi:open="true"
       d="m 55.791175,130.06774 a 7.0168948,7.0168948 0 0 1 -8.840244,-3.25273 7.0168948,7.0168948 0 0 1 2.362074,-9.11871 7.0168948,7.0168948 0 0 1 9.307674,1.44824 7.0168948,7.0168948 0 0 1 -0.520183,9.4053" />
    <path
       style="fill:none;fill-opacity:1;stroke:#000001;stroke-width:0.56193829;stroke-linejoin:round;stroke-miterlimit:4;stroke-dasharray:none;stroke-dashoffset:0;stroke-opacity:1"
       id="path968-1-2"
       sodipodi:type="arc"
       sodipodi:cx="38.771053"
       sodipodi:cy="129.56883"
       sodipodi:rx="7.0964279"
       sodipodi:ry="7.0964279"
       sodipodi:start="1.136891"
       sodipodi:end="0.81932826"
       sodipodi:open="true"
       d="m 41.754515,136.00764 a 7.0964279,7.0964279 0 0 1 -9.165378,-2.9541 7.0964279,7.0964279 0 0 1 2.217912,-9.37079 7.0964279,7.0964279 0 0 1 9.517172,1.46775 7.0964279,7.0964279 0 0 1 -0.70835,9.6036" />
    <path
       style="fill:none;fill-opacity:1;stroke:#000001;stroke-width:0.57327455;stroke-linejoin:round;stroke-miterlimit:4;stroke-dasharray:none;stroke-dashoffset:0;stroke-opacity:1"
       id="path968-1-0"
       sodipodi:type="arc"
       sodipodi:cx="28.928587"
       sodipodi:cy="142.25427"
       sodipodi:rx="7.2395883"
       sodipodi:ry="7.2395883"
       sodipodi:start="1.1072142"
       sodipodi:end="5.3932467"
       d="m 32.165805,148.72977 a 7.2395883,7.2395883 0 0 1 -9.188907,-2.35372 7.2395883,7.2395883 0 0 1 1.028466,-9.42965 7.2395883,7.2395883 0 0 1 9.480252,-0.31753"
       sodipodi:open="true" />
    <path
       style="fill:none;fill-opacity:1;stroke:#000001;stroke-width:0.56067872;stroke-linejoin:round;stroke-miterlimit:4;stroke-dasharray:none;stroke-dashoffset:0;stroke-opacity:1"
       id="path968-1-9"
       sodipodi:type="arc"
       sodipodi:cx="68.586731"
       sodipodi:cy="137.23407"
       sodipodi:rx="7.0805216"
       sodipodi:ry="7.0805216"
       sodipodi:start="4.2447701"
       sodipodi:end="4.0080445"
       d="m 65.3951,130.91368 a 7.0805216,7.0805216 0 0 1 9.312177,2.76052 7.0805216,7.0805216 0 0 1 -2.204893,9.45915 7.0805216,7.0805216 0 0 1 -9.573002,-1.64156 7.0805216,7.0805216 0 0 1 1.072467,-9.65333"
       sodipodi:open="true" />
    <path
       style="fill:none;fill-opacity:1;stroke:#000001;stroke-width:0.56067872;stroke-linejoin:round;stroke-miterlimit:4;stroke-dasharray:none;stroke-dashoffset:0;stroke-opacity:1"
       id="path968-1-07"
       sodipodi:type="arc"
       sodipodi:cx="53.167152"
       sodipodi:cy="135.367"
       sodipodi:rx="7.0805216"
       sodipodi:ry="7.0805216"
       sodipodi:start="4.266234"
       sodipodi:end="3.9867251"
       sodipodi:open="true"
       d="m 50.111907,128.97957 a 7.0805216,7.0805216 0 0 1 9.213769,2.89367 7.0805216,7.0805216 0 0 1 -2.243297,9.39332 7.0805216,7.0805216 0 0 1 -9.527025,-1.58197 7.0805216,7.0805216 0 0 1 0.912936,-9.61423" />
    <path
       style="color:#000000;font-style:normal;font-variant:normal;font-weight:normal;font-stretch:normal;font-size:medium;line-height:normal;font-family:sans-serif;font-variant-ligatures:normal;font-variant-position:normal;font-variant-caps:normal;font-variant-numeric:normal;font-variant-alternates:normal;font-feature-settings:normal;text-indent:0;text-align:start;text-decoration:none;text-decoration-line:none;text-decoration-style:solid;text-decoration-color:#000000;letter-spacing:normal;word-spacing:normal;text-transform:none;writing-mode:lr-tb;direction:ltr;text-orientation:mixed;dominant-baseline:auto;baseline-shift:baseline;text-anchor:start;white-space:normal;shape-padding:0;clip-rule:nonzero;display:inline;overflow:visible;visibility:visible;opacity:1;isolation:auto;mix-blend-mode:normal;color-interpolation:sRGB;color-interpolation-filters:linearRGB;solid-color:#000000;solid-opacity:1;vector-effect:none;fill:#000001;fill-opacity:1;fill-rule:nonzero;stroke:none;stroke-width:0.56067872;stroke-linecap:butt;stroke-linejoin:round;stroke-miterlimit:4;stroke-dasharray:none;stroke-dashoffset:0;stroke-opacity:1;color-rendering:auto;image-rendering:auto;shape-rendering:auto;text-rendering:auto;enable-background:accumulate"
       d="m 38.164062,133.92383 c -0.899745,0.0737 -1.798556,0.3147 -2.652343,0.73633 l 0.248047,0.50195 c 3.159316,-1.56015 6.981212,-0.45125 8.816406,2.55664 1.835196,3.0079 1.072827,6.91215 -1.759766,9.00781 -2.832589,2.09567 -6.791366,1.68362 -9.130859,-0.95117 -2.339492,-2.63479 -2.244101,-6.67086 0.171972,-9.23561 l -0.443457,-0.32689 c -2.611721,2.77244 -2.675422,7.08544 -0.146484,9.93359 2.52894,2.84816 6.818895,3.29662 9.88086,1.03125 3.061968,-2.26536 3.890055,-6.50048 1.90625,-9.75195 -1.487853,-2.4386 -4.19139,-3.72319 -6.890626,-3.50195 z"
       id="path968-1-03"
       inkscape:connector-curvature="0"
       sodipodi:nodetypes="cccscsccccsc" />
    <path
       style="fill:none;fill-opacity:1;stroke:#000001;stroke-width:0.56067872;stroke-linejoin:round;stroke-miterlimit:4;stroke-dasharray:none;stroke-dashoffset:0;stroke-opacity:1"
       id="path968-1-4"
       sodipodi:type="arc"
       sodipodi:cx="29.126335"
       sodipodi:cy="154.19116"
       sodipodi:rx="7.0805216"
       sodipodi:ry="7.0805216"
       sodipodi:start="4.2656052"
       sodipodi:end="4.0038635"
       d="m 26.067074,147.80565 a 7.0805216,7.0805216 0 0 1 9.231061,2.91526 7.0805216,7.0805216 0 0 1 -2.305406,9.40193 7.0805216,7.0805216 0 0 1 -9.532557,-1.68569 7.0805216,7.0805216 0 0 1 1.058763,-9.62239"
       sodipodi:open="true" />
  </g>
  <g
     inkscape:groupmode="layer"
     id="layer2"
     inkscape:label="Layer 2" />
</svg>
